<svg width="116" height="40" viewBox="0 0 116 40" fill="none" xmlns="http://www.w3.org/2000/svg">
<g clip-path="url(#clip0_684_748)">
<path d="M36.1333 17.0933C36.039 17.0316 35.958 16.9515 35.8953 16.8578C35.8326 16.7641 35.7894 16.6588 35.7682 16.5481C35.7471 16.4373 35.7484 16.3235 35.7722 16.2133C35.796 16.1031 35.8417 15.9988 35.9066 15.9066H7.27996C7.34311 15.9994 7.38737 16.1037 7.41017 16.2136C7.43296 16.3235 7.43382 16.4367 7.41277 16.547C7.39171 16.6572 7.34913 16.7622 7.28744 16.8559C7.22576 16.9497 7.14621 17.0304 7.05331 17.0933C6.90986 17.1973 6.73719 17.2533 6.55999 17.2533C6.36706 17.2451 6.18306 17.1696 6.03997 17.04V39.4666C6.03819 39.536 6.05028 39.6051 6.07561 39.6697C6.10095 39.7344 6.13896 39.7933 6.18743 39.843C6.23589 39.8927 6.29386 39.9322 6.35784 39.9591C6.42181 39.9861 6.49056 40 6.55999 40H36.5733C36.7147 40 36.8503 39.9438 36.9504 39.8437C37.0504 39.7437 37.1066 39.6081 37.1066 39.4666V17.04C36.9572 17.1678 36.7697 17.2428 36.5733 17.2533C36.4136 17.2467 36.2599 17.1908 36.1333 17.0933ZM7.55999 38.5733V17.2399H35.6532V38.5733H7.55999Z" fill="#409AA1"/>
<path d="M6.70679 16.5467C6.72453 16.5293 6.73859 16.5085 6.74821 16.4856C6.75783 16.4627 6.76278 16.4382 6.76278 16.4133C6.76278 16.3885 6.75783 16.3639 6.74821 16.341C6.73859 16.3181 6.72453 16.2974 6.70679 16.28L0.97347 7.84001C0.939849 7.79845 0.892575 7.77012 0.840088 7.76001H0.720133C0.686366 7.79883 0.667725 7.84853 0.667725 7.89998C0.667725 7.95144 0.686366 8.00117 0.720133 8.04L6.45345 16.4667C6.46084 16.4919 6.4743 16.5148 6.49268 16.5336C6.51105 16.5523 6.53372 16.5663 6.55876 16.5742C6.58379 16.5821 6.61042 16.5837 6.63623 16.5789C6.66204 16.5741 6.68627 16.563 6.70679 16.5467Z" fill="#409AA1"/>
<path d="M6.6001 17.24C6.77731 17.24 6.94998 17.184 7.09343 17.08C7.18633 17.017 7.26587 16.9364 7.32756 16.8426C7.38924 16.7489 7.43183 16.6439 7.45288 16.5337C7.47394 16.4234 7.47307 16.3101 7.45028 16.2002C7.42749 16.0904 7.38323 15.986 7.32007 15.8933L1.61345 7.50664C1.5505 7.4136 1.46979 7.33392 1.37598 7.27214C1.28217 7.21036 1.17706 7.16768 1.06674 7.14661C0.899081 7.11525 0.725948 7.13407 0.568932 7.20069C0.411917 7.2673 0.278038 7.37877 0.184085 7.52112C0.0901325 7.66347 0.0402968 7.83038 0.0407749 8.00094C0.041253 8.1715 0.0920215 8.33812 0.186771 8.47994L5.93343 16.9066C5.98221 16.9774 6.04595 17.0366 6.12012 17.08C6.25947 17.1821 6.42731 17.2381 6.6001 17.24ZM0.706791 8.05327C0.673024 8.01444 0.654382 7.96475 0.654382 7.91329C0.654382 7.86184 0.673024 7.8121 0.706791 7.77328H0.826745C0.879232 7.78339 0.926506 7.81172 0.960127 7.85327L6.69344 16.2933C6.71118 16.3107 6.72525 16.3314 6.73487 16.3543C6.74449 16.3772 6.74943 16.4018 6.74943 16.4266C6.74943 16.4515 6.74449 16.4761 6.73487 16.4989C6.72525 16.5218 6.71118 16.5426 6.69344 16.5599C6.67885 16.5819 6.65901 16.6 6.63575 16.6125C6.61248 16.625 6.58655 16.6315 6.56014 16.6315C6.53374 16.6315 6.50772 16.625 6.48446 16.6125C6.46119 16.6 6.44136 16.5819 6.42676 16.5599L0.706791 8.05327Z" fill="#409AA1"/>
<path d="M42.52 8.06661C42.5386 8.01948 42.5386 7.96709 42.52 7.91996C42.5065 7.86886 42.4787 7.82262 42.44 7.78662H42.3333C42.2848 7.79744 42.242 7.82596 42.2134 7.86662L36.44 16.2799C36.4223 16.2973 36.4082 16.3181 36.3986 16.341C36.389 16.3639 36.384 16.3885 36.384 16.4133C36.384 16.4381 36.389 16.4627 36.3986 16.4856C36.4082 16.5085 36.4223 16.5293 36.44 16.5466C36.4546 16.5686 36.4745 16.5867 36.4977 16.5992C36.521 16.6116 36.5469 16.6182 36.5733 16.6182C36.5997 16.6182 36.6257 16.6116 36.649 16.5992C36.6723 16.5867 36.6921 16.5686 36.7067 16.5466L42.52 8.06661Z" fill="#409AA1"/>
<path d="M42.84 7.23996C42.7477 7.17608 42.6435 7.13139 42.5336 7.10849C42.4236 7.08559 42.3102 7.08494 42.2001 7.10662C41.9734 7.14865 41.7724 7.27794 41.6401 7.46664L35.9334 15.9066C35.8684 15.9988 35.8227 16.1031 35.7989 16.2133C35.7752 16.3235 35.7738 16.4373 35.7949 16.5481C35.8161 16.6588 35.8593 16.7641 35.9221 16.8578C35.9848 16.9515 36.0657 17.0316 36.16 17.0933C36.2975 17.199 36.4667 17.2553 36.6401 17.2533C36.8365 17.2428 37.0239 17.1678 37.1734 17.04C37.2449 16.9931 37.308 16.9345 37.36 16.8666L43.0934 8.43995C43.1576 8.34525 43.2025 8.23877 43.2254 8.12663C43.2482 8.0145 43.2488 7.89894 43.2267 7.78663C43.2025 7.67414 43.1557 7.56771 43.0892 7.47376C43.0228 7.37982 42.938 7.3003 42.84 7.23996ZM36.5067 16.5733C36.489 16.5559 36.4749 16.5351 36.4653 16.5123C36.4557 16.4894 36.4507 16.4648 36.4507 16.4399C36.4507 16.4151 36.4557 16.3905 36.4653 16.3676C36.4749 16.3447 36.489 16.324 36.5067 16.3066L42.2534 7.86663C42.282 7.82596 42.3248 7.79744 42.3734 7.78663H42.4801C42.5188 7.82263 42.5465 7.86886 42.5601 7.91997C42.5787 7.96709 42.5787 8.01949 42.5601 8.06662L36.8134 16.4933C36.8112 16.5292 36.7969 16.5633 36.7729 16.5901C36.7489 16.6169 36.7165 16.6349 36.6811 16.641C36.6456 16.6472 36.6091 16.6412 36.5775 16.6241C36.5459 16.607 36.5209 16.5797 36.5067 16.5466V16.5733Z" fill="#409AA1"/>
<path d="M21.6134 21.3866C20.2949 21.3866 19.006 21.7776 17.9097 22.5101C16.8133 23.2427 15.9589 24.2839 15.4543 25.5021C14.9497 26.7203 14.8176 28.0607 15.0749 29.3539C15.3321 30.6471 15.9671 31.835 16.8994 32.7673C17.8318 33.6997 19.0196 34.3346 20.3128 34.5918C21.606 34.8491 22.9465 34.7171 24.1646 34.2125C25.3828 33.7079 26.424 32.8534 27.1566 31.7571C27.8891 30.6608 28.2801 29.3718 28.2801 28.0533C28.2801 26.2852 27.5777 24.5895 26.3275 23.3392C25.0772 22.089 23.3816 21.3866 21.6134 21.3866ZM26.1068 25.5733L22.1068 32.04C22.0214 32.1827 21.9053 32.3046 21.7669 32.3968C21.6286 32.4891 21.4714 32.5494 21.3068 32.5733H21.1201C20.848 32.5726 20.5844 32.4785 20.3735 32.3066L16.9468 29.4399C16.8294 29.3434 16.7324 29.2245 16.6614 29.0902C16.5904 28.9558 16.5468 28.8087 16.5331 28.6573C16.5195 28.506 16.536 28.3534 16.5819 28.2085C16.6277 28.0636 16.7019 27.9292 16.8001 27.8133C16.9976 27.5764 17.2804 27.4269 17.5873 27.397C17.8942 27.367 18.2006 27.4591 18.4401 27.6533L20.8401 29.6666L24.1601 24.3333C24.2405 24.2035 24.3457 24.0909 24.4696 24.0019C24.5936 23.9129 24.734 23.8492 24.8826 23.8145C25.0313 23.7799 25.1853 23.7749 25.3359 23.7998C25.4864 23.8248 25.6306 23.8792 25.7601 23.96C25.8895 24.0425 26.0013 24.1499 26.0889 24.276C26.1765 24.402 26.2381 24.5442 26.2703 24.6942C26.3026 24.8443 26.3048 24.9993 26.2767 25.1501C26.2486 25.301 26.1908 25.4449 26.1068 25.5733Z" fill="#409AA1"/>
<path d="M21.6133 20.5599C20.1233 20.5626 18.6676 21.007 17.4302 21.837C16.1929 22.6669 15.2294 23.8452 14.6616 25.2228C14.0939 26.6003 13.9474 28.1152 14.2406 29.576C14.5339 31.0368 15.2537 32.3779 16.3092 33.4296C17.3646 34.4813 18.7082 35.1964 20.17 35.4845C21.6318 35.7726 23.1463 35.6207 24.5218 35.0481C25.8973 34.4755 27.0722 33.5078 27.8978 32.2675C28.7234 31.0272 29.1625 29.5699 29.1599 28.08C29.1582 27.0907 28.9616 26.1114 28.5814 25.1981C28.2012 24.2848 27.6449 23.4553 26.9441 22.757C26.2433 22.0587 25.4118 21.5053 24.4971 21.1283C23.5825 20.7513 22.6026 20.5582 21.6133 20.5599ZM21.6133 34.7866C20.2947 34.7866 19.0058 34.3956 17.9095 33.6631C16.8132 32.9306 15.9587 31.8894 15.4541 30.6712C14.9495 29.453 14.8175 28.1126 15.0747 26.8193C15.3319 25.5261 15.9669 24.3383 16.8992 23.4059C17.8316 22.4736 19.0194 21.8386 20.3127 21.5814C21.6059 21.3242 22.9463 21.4562 24.1645 21.9607C25.3826 22.4653 26.4239 23.3198 27.1564 24.4162C27.8889 25.5125 28.2799 26.8014 28.2799 28.12C28.2799 29.8881 27.5775 31.5838 26.3273 32.834C25.0771 34.0842 23.3814 34.7866 21.6133 34.7866Z" fill="#409AA1"/>
<path d="M25.7734 23.9734C25.6438 23.8926 25.4997 23.8382 25.3491 23.8132C25.1985 23.7882 25.0445 23.7933 24.8958 23.828C24.7472 23.8627 24.6069 23.9263 24.4829 24.0154C24.3589 24.1044 24.2537 24.2169 24.1733 24.3467L20.8533 29.68L18.4534 27.6667C18.2138 27.4725 17.9074 27.3804 17.6005 27.4104C17.2936 27.4403 17.0109 27.5899 16.8134 27.8267C16.7152 27.9427 16.641 28.077 16.5951 28.2219C16.5493 28.3668 16.5327 28.5194 16.5464 28.6707C16.56 28.8221 16.6036 28.9692 16.6746 29.1036C16.7457 29.2379 16.8427 29.3568 16.96 29.4534L20.3867 32.32C20.5977 32.4919 20.8613 32.5861 21.1334 32.5867H21.32C21.4846 32.5628 21.6418 32.5025 21.7802 32.4103C21.9186 32.318 22.0346 32.1961 22.12 32.0534L26.12 25.5867C26.2041 25.4583 26.2619 25.3145 26.29 25.1636C26.318 25.0127 26.3159 24.8577 26.2836 24.7077C26.2514 24.5576 26.1896 24.4154 26.102 24.2894C26.0145 24.1633 25.9028 24.0559 25.7734 23.9734Z" fill="white"/>
<path d="M21.7734 11.5866L22.5868 12.4133C22.4798 12.625 22.3864 12.8432 22.3068 13.0666H21.1601C20.9394 13.0733 20.7297 13.164 20.5736 13.3201C20.4175 13.4762 20.3268 13.6859 20.3201 13.9066V15.1733H24.8001C24.8036 14.2502 25.1709 13.3657 25.8224 12.7117C26.4739 12.0577 27.357 11.6869 28.2801 11.6799C28.7382 11.6799 29.1918 11.7704 29.6149 11.9461C30.038 12.1218 30.4222 12.3794 30.7455 12.7039C31.0688 13.0285 31.3249 13.4137 31.499 13.8374C31.6731 14.2612 31.7618 14.7152 31.7601 15.1733H36.2401V13.92C36.2401 13.6972 36.1516 13.4835 35.9941 13.326C35.8365 13.1684 35.6228 13.0799 35.4001 13.0799H34.2534C34.1734 12.8533 34.0801 12.6399 33.9867 12.4133L34.8001 11.5999C34.9532 11.443 35.0389 11.2325 35.0389 11.0133C35.0389 10.794 34.9532 10.5835 34.8001 10.4266L33.0268 8.65327C32.9496 8.57664 32.858 8.51599 32.7573 8.4748C32.6567 8.43362 32.5489 8.41272 32.4401 8.41328C32.331 8.4104 32.2225 8.43027 32.1215 8.47159C32.0205 8.51291 31.9292 8.57476 31.8534 8.65327L31.0401 9.46662C30.8228 9.36202 30.6003 9.26853 30.3735 9.18659V8.03995C30.3735 7.81946 30.2868 7.60778 30.1322 7.45063C29.9775 7.29348 29.7673 7.20344 29.5468 7.19994H27.0268C26.9177 7.19814 26.8094 7.21828 26.7083 7.25919C26.6072 7.30009 26.5154 7.36093 26.4382 7.43806C26.3611 7.51518 26.3003 7.60701 26.2594 7.70812C26.2185 7.80923 26.1983 7.91754 26.2001 8.0266V9.23994L25.5334 9.50662L24.7201 8.69327C24.5619 8.54206 24.3523 8.45633 24.1335 8.45328C24.0245 8.4512 23.9162 8.47141 23.8153 8.51268C23.7145 8.55396 23.6231 8.61541 23.5468 8.69327L21.7734 10.4133C21.6944 10.4892 21.6315 10.5802 21.5885 10.6811C21.5456 10.7819 21.5234 10.8904 21.5234 10.9999C21.5234 11.1095 21.5456 11.218 21.5885 11.3188C21.6315 11.4196 21.6944 11.5107 21.7734 11.5866Z" fill="#D5007F"/>
<path d="M9.65323 7.01331L10.6133 7.2C10.6133 7.42667 10.6932 7.63999 10.7466 7.85332L9.93326 8.39999C9.86666 8.44547 9.80971 8.50362 9.76562 8.57114C9.72152 8.63865 9.69112 8.71421 9.67626 8.79347C9.6614 8.87273 9.66239 8.95414 9.67903 9.03305C9.69567 9.11196 9.72767 9.18683 9.77327 9.25335L10.9066 10.96C10.9531 11.0266 11.0125 11.0833 11.0812 11.1268C11.1499 11.1703 11.2265 11.1997 11.3066 11.2133C11.3844 11.2319 11.4653 11.2331 11.5436 11.217C11.6219 11.2009 11.6958 11.1678 11.7599 11.12L12.5866 10.5733C12.7603 10.7098 12.9429 10.8346 13.1333 10.9467L12.9466 11.9067C12.9152 12.0658 12.948 12.2308 13.038 12.3657C13.1279 12.5007 13.2676 12.5945 13.4266 12.6267L15.4399 13.0267C15.5196 13.0421 15.6017 13.0415 15.6811 13.025C15.7606 13.0085 15.836 12.9763 15.903 12.9304C15.97 12.8845 16.0272 12.8258 16.0713 12.7577C16.1154 12.6895 16.1455 12.6132 16.1599 12.5333L16.3466 11.5733C16.567 11.5431 16.7852 11.4985 16.9999 11.44L17.5466 12.2533C17.6439 12.3871 17.7857 12.4816 17.9466 12.52C18.1084 12.5487 18.275 12.5154 18.4132 12.4267L20.1066 11.28C20.1746 11.2358 20.233 11.1782 20.2782 11.1107C20.3233 11.0433 20.3543 10.9674 20.3692 10.8876C20.3842 10.8078 20.3828 10.7258 20.3651 10.6466C20.3475 10.5674 20.314 10.4926 20.2666 10.4267L19.72 9.61333C19.8566 9.43508 19.9813 9.24799 20.0933 9.05331L20.8666 9.2C20.9699 9.22139 21.0765 9.22212 21.1801 9.20216C21.2837 9.1822 21.3824 9.14196 21.4704 9.08371C21.5584 9.02546 21.6339 8.95035 21.6928 8.86276C21.7516 8.77517 21.7926 8.67681 21.8133 8.57333L22.1733 6.74667C22.1887 6.66696 22.1881 6.58495 22.1716 6.50546C22.1551 6.42597 22.123 6.35056 22.0771 6.28358C22.0312 6.2166 21.9724 6.15943 21.9042 6.11532C21.836 6.07122 21.7598 6.04107 21.6799 6.02666L20.72 5.84002C20.6961 5.61853 20.6514 5.39976 20.5866 5.18666L21.3999 4.62668C21.4676 4.58224 21.5258 4.52485 21.5712 4.45781C21.6166 4.39078 21.6482 4.31542 21.6643 4.23609C21.6804 4.15677 21.6807 4.07504 21.665 3.99562C21.6494 3.91619 21.6182 3.84064 21.5732 3.77332L20.4266 2.08001C20.3343 1.94715 20.1969 1.85236 20.04 1.81332C19.8783 1.78954 19.7133 1.82254 19.5732 1.90667L18.7599 2.46668C18.5871 2.32258 18.3994 2.19742 18.1999 2.09335L18.3999 1.13335C18.4277 0.971131 18.3921 0.804382 18.3002 0.667816C18.2083 0.53125 18.0673 0.435341 17.9066 0.399994L15.8933 0.0133159C15.8153 -0.00191753 15.735 -0.0014854 15.6572 0.0145366C15.5794 0.0305586 15.5056 0.061861 15.4399 0.106659C15.3071 0.198929 15.2123 0.336366 15.1733 0.493337L14.9866 1.46668C14.7653 1.49183 14.5467 1.53642 14.3332 1.59999L13.7866 0.786672C13.7453 0.716876 13.6893 0.656892 13.6226 0.61085C13.5558 0.564808 13.4798 0.533788 13.3999 0.519989C13.2381 0.489957 13.071 0.523391 12.9333 0.613332L11.2399 1.76002C11.106 1.85205 11.0132 1.99247 10.9809 2.15166C10.9485 2.31086 10.9792 2.47637 11.0666 2.61333L11.6133 3.42669C11.4779 3.60303 11.3575 3.79032 11.2532 3.98666L10.2799 3.80002C10.2021 3.78147 10.1212 3.78019 10.0429 3.79631C9.96455 3.81244 9.89071 3.84555 9.82657 3.89332C9.69372 3.98559 9.59901 4.12303 9.55997 4.28L9.17325 6.29334C9.14182 6.45243 9.17469 6.61748 9.26464 6.75241C9.35459 6.88734 9.49429 6.98114 9.65323 7.01331ZM14.1199 4.21335C14.7304 3.80356 15.4775 3.6503 16.1999 3.78667C16.56 3.85545 16.9025 3.99594 17.2072 4.1998C17.5118 4.40366 17.7724 4.66671 17.9733 4.97332C18.3823 5.58422 18.5333 6.33201 18.3935 7.05376C18.2536 7.77551 17.8342 8.41275 17.2266 8.82667C16.9195 9.03526 16.5733 9.17941 16.2089 9.25046C15.8445 9.3215 15.4696 9.31795 15.1066 9.24C14.7487 9.17481 14.408 9.03708 14.1053 8.8353C13.8026 8.63351 13.5444 8.37194 13.3466 8.06666C13.1436 7.76311 13.0025 7.42245 12.9316 7.06426C12.8606 6.70606 12.861 6.3374 12.9329 5.97938C13.0047 5.62136 13.1465 5.28102 13.3503 4.97796C13.554 4.67489 13.8156 4.41507 14.1199 4.21335Z" fill="#D5007F"/>
<path d="M58.5201 25.44H54.1201V34.1867H50.1201V11.44H58.1201C60.2923 11.2976 62.4451 11.9255 64.2001 13.2134C64.9269 13.8418 65.4988 14.6296 65.8712 15.5154C66.2435 16.4012 66.4063 17.361 66.3468 18.32C66.3925 19.6806 66.0049 21.0205 65.2401 22.1467C64.4581 23.2073 63.3962 24.0291 62.1734 24.52L67.2801 33.9867V34.1867H63.1068L58.5201 25.44ZM54.1201 22.2534H58.1201C59.2548 22.3216 60.3736 21.9598 61.2534 21.24C61.6295 20.8918 61.9247 20.4655 62.1182 19.991C62.3117 19.5164 62.3988 19.0052 62.3735 18.4934C62.4068 17.9757 62.3314 17.4568 62.1523 16.97C61.9732 16.4832 61.6943 16.0393 61.3334 15.6667C60.4724 14.9387 59.366 14.5668 58.2401 14.6267H54.0667L54.1201 22.2534Z" fill="white"/>
<path d="M90.84 34.1866H86.84L76.6934 18.0533V34.1866H72.6934V11.4399H76.6934L86.8667 27.6399V11.4399H90.7867L90.84 34.1866Z" fill="white"/>
<path d="M102.133 25.76V34.1867H98.1333V11.44H106.827C109.025 11.326 111.188 12.0342 112.893 13.4267C113.633 14.0817 114.217 14.8928 114.604 15.8013C114.992 16.7098 115.172 17.6931 115.133 18.68C115.187 19.659 115.016 20.6373 114.635 21.5407C114.254 22.444 113.672 23.2486 112.933 23.8933C111.174 25.2317 108.993 25.8942 106.787 25.76H102.133ZM102.133 22.5733H106.88C108.043 22.6533 109.193 22.2968 110.107 21.5733C110.487 21.204 110.784 20.7565 110.975 20.2615C111.166 19.7666 111.247 19.2361 111.213 18.7067C111.236 18.1653 111.148 17.6249 110.956 17.1183C110.763 16.6118 110.47 16.1497 110.093 15.76C109.249 14.9947 108.139 14.5882 107 14.6267H102.133V22.5733Z" fill="white"/>
</g>
<defs>
<clipPath id="clip0_684_748">
<rect width="115.187" height="40" fill="white"/>
</clipPath>
</defs>
</svg>
